:SAMPLES-PER-SECOND 30
:FULLY-SPECIFIED
:DEGREES
1417
root  -24.2298 37.6366 3.1752 175.181 -56.9313 -177.495
RightUpLeg  -1.39351 9.48009 0.08713
RightLeg  31.457 2.64167 1.49165
RightFoot  -27.2226 -0.208887 -0.178347
RightToes  5.82063e-011 0 -3.6325e-017
Spine  13.969 0.238605 4.42008
Spine1  -0.492311 -2.27687 15.3615
HEad  -22.1217 28.0745 -10.6791
LeftShoulder1  0.94013 -0.527963 -16.5667
LeftArm  -13.1722 -16.8609 -54.7959
LeftForeArm  75.5643 -79.5094 -81.9962
LeftHand  -0.146801 3.01929 6.61117
RightShoulder  0.162485 -2.59482 11.0477
RightArm  -24.0859 20.9542 43.1753
RightForeArm  124.616 73.711 139.375
RightHand  -0.984295 7.98871 -8.87745
LeftUpLeg  -30.2899 -8.92533 17.1126
LeftLeg  22.1815 -8.85772 -3.63817
LeftFoot  -7.44266 0.24057 -5.76791
LeftToes  -1.20963e-009 8.6283e-011 2.04439e-011
1418
root  -25.5287 36.9526 3.27955 173.255 -54.5335 -176.845
RightUpLeg  0.225066 11.883 -0.0239884
RightLeg  34.9797 2.71041 1.77926
RightFoot  -30.8446 -0.132865 0.445239
RightToes  5.82063e-011 0 -3.6325e-017
Spine  15.2956 0.125915 3.39907
Spine1  0.566427 -2.97541 17.6134
HEad  -24.0924 31.2599 -11.8693
LeftShoulder1  0.920663 -0.659756 -15.3089
LeftArm  -14.867 -19.6353 -54.7522
LeftForeArm  73.9852 -79.4729 -79.7519
LeftHand  -0.132154 3.16481 6.24029
RightShoulder  0.189746 -2.41448 10.4254
RightArm  -26.3661 21.7463 43.1268
RightForeArm  125.207 73.5654 139.854
RightHand  -0.994656 7.60893 -9.21741
LeftUpLeg  -30.9816 -8.34783 17.2592
LeftLeg  26.4016 -10.2405 -5.18079
LeftFoot  -7.66328 0.259335 -6.59792
LeftToes  -1.20963e-009 8.6283e-011 2.04439e-011
1419
root  -27.0591 36.2565 3.35506 171.494 -52.2618 -175.726
RightUpLeg  2.26725 13.761 -0.181598
RightLeg  37.1442 3.25812 2.37326
RightFoot  -34.4077 0.00268992 1.16214
RightToes  5.82063e-011 0 -3.6325e-017
Spine  15.4276 -0.14325 3.5179
Spine1  1.61869 -3.59086 18.9756
HEad  -24.8106 33.6782 -11.8801
LeftShoulder1  0.984122 -1.21584 -13.8843
LeftArm  -15.9595 -21.9128 -55.3405
LeftForeArm  68.6995 -79.2474 -73.6495
LeftHand  -0.147988 3.08741 6.87436
RightShoulder  0.206238 -2.29971 10.0576
RightArm  -28.3029 20.3605 42.9294
RightForeArm  125.405 73.3117 140.527
RightHand  -1.0217 7.07442 -9.82297
LeftUpLeg  -31.9335 -7.54009 17.1606
LeftLeg  33.1969 -11.4135 -7.61668
LeftFoot  -6.79864 0.375667 -8.45627
LeftToes  -1.20963e-009 8.6283e-011 2.04439e-011
1420
root  -28.7601 35.6316 3.40924 170.459 -49.6652 -174.785
RightUpLeg  4.42966 15.8163 -0.675274
RightLeg  37.9279 3.93315 3.00838
RightFoot  -37.2159 0.202501 1.98842
RightToes  5.82063e-011 0 -3.6325e-017
Spine  14.923 -0.355546 3.44014
Spine1  2.72099 -4.25268 20.4924
HEad  -25.1002 36.2597 -11.7898
LeftShoulder1  0.941971 -1.12053 -13.3768
LeftArm  -15.9794 -24.1651 -56.1421
LeftForeArm  62.0382 -78.7819 -66.4552
LeftHand  -0.138884 3.37617 7.22282
RightShoulder  0.204895 -2.29555 9.8646
RightArm  -29.1112 18.003 42.1204
RightForeArm  123.684 72.9718 141.074
RightHand  -1.13977 7.55284 -10.5411
LeftUpLeg  -33.0869 -5.59737 16.5643
LeftLeg  41.2951 -11.1421 -9.93224
LeftFoot  -6.92975 0.395027 -8.95947
LeftToes  -1.20963e-009 8.6283e-011 2.04439e-011
1421
root  -30.5069 35.1931 3.41183 170.561 -46.7649 -175.593
RightUpLeg  6.91057 17.8308 -2.59376
RightLeg  37.9532 5.03554 3.92572
RightFoot  -38.6548 0.513499 3.18936
RightToes  5.82063e-011 0 -3.6325e-017
Spine  14.9973 -0.0318162 1.312
Spine1  3.13896 -4.71405 22.988
HEad  -25.6537 38.3426 -11.7022
LeftShoulder1  0.932639 -0.955023 -13.9695
LeftArm  -14.9249 -26.5179 -56.5278
LeftForeArm  53.6056 -77.906 -58.2657
LeftHand  -0.0899852 4.10178 6.62516
RightShoulder  0.204282 -2.2998 9.8667
RightArm  -29.2277 14.5379 39.9794
RightForeArm  121.118 72.4805 141.812
RightHand  -1.15985 7.41131 -10.8298
LeftUpLeg  -33.1128 -2.88868 14.4239
LeftLeg  48.5179 -9.28146 -10.6381
LeftFoot  -10.2842 0.114936 -5.49133
LeftToes  -1.20963e-009 8.6283e-011 2.04439e-011
